<?xml version="1.0" standalone="no"?>
<!DOCTYPE svg PUBLIC "-//W3C//DTD SVG 20010904//EN"
 "http://www.w3.org/TR/2001/REC-SVG-20010904/DTD/svg10.dtd">
<svg version="1.0" xmlns="http://www.w3.org/2000/svg"
 width="512.000000pt" height="512.000000pt" viewBox="0 0 512.000000 512.000000"
 preserveAspectRatio="xMidYMid meet">

<g transform="translate(0.000000,512.000000) scale(0.100000,-0.100000)"
fill="#000000" stroke="none">
<path d="M252 4303 c-18 -9 -45 -32 -60 -51 -39 -51 -38 -134 0 -184 57 -74
-162 -68 2368 -68 2530 0 2311 -6 2368 68 39 51 39 133 0 184 -57 74 163 68
-2370 68 -2084 0 -2276 -2 -2306 -17z"/>
<path d="M252 2703 c-18 -9 -45 -32 -60 -51 -39 -51 -38 -134 0 -184 57 -74
-162 -68 2368 -68 2530 0 2311 -6 2368 68 39 51 39 133 0 184 -57 74 163 68
-2370 68 -2084 0 -2276 -2 -2306 -17z"/>
<path d="M252 1103 c-18 -9 -45 -32 -60 -51 -39 -51 -38 -134 0 -184 57 -74
-162 -68 2368 -68 2530 0 2311 -6 2368 68 39 51 39 133 0 184 -57 74 163 68
-2370 68 -2084 0 -2276 -2 -2306 -17z"/>
</g>
</svg>
